<svg viewBox="0 0 160 160" version="1.1" id="svg_null"><g id="root" stroke="none" stroke-width="1" fill="none" fill-rule="evenodd"><rect id="background.secondary" fill="#0a91ab" x="0" y="0" width="160" height="160"></rect><path d="M20 20l0 120l120 0l0 -120l-120 0zm-3 -3l126 0l0 126l-126 0l0 -126z" id="shape.primary" fill="#ffc045" fill-rule="nonzero"></path><rect id="icon.primary" x="68" y="56" width="24" height="24" display="none" fill="#ffc045"></rect><svg xmlns="http://www.w3.org/2000/svg" xmlns:xlink="http://www.w3.org/1999/xlink" viewBox="0 0 50 50" version="1.1" fill="#ffc045" id="svg_icon.primary" x="68" y="56" width="24" height="24"><g id="surface1" fill="#ffc045"><path style=" " d="M 2.84375 3 C 1.273438 3 0 4.273438 0 5.84375 L 0 10 L 50 10 L 50 5.84375 C 50 4.273438 48.726563 3 47.15625 3 Z M 0 12 L 0 46 C 0 46.554688 0.449219 47 1 47 L 49 47 C 49.554688 47 50 46.554688 50 46 L 50 12 Z M 15.09375 19.96875 C 15.351563 19.972656 15.589844 20.050781 15.78125 20.25 L 22.40625 27.0625 L 15.625 33.6875 C 15.429688 33.875 15.191406 33.96875 14.9375 33.96875 C 14.675781 33.96875 14.414063 33.855469 14.21875 33.65625 C 13.832031 33.261719 13.824219 32.636719 14.21875 32.25 L 19.59375 27.03125 L 14.375 21.65625 C 13.988281 21.261719 13.980469 20.636719 14.375 20.25 C 14.574219 20.054688 14.835938 19.964844 15.09375 19.96875 Z M 23 32 L 36 32 C 36.554688 32 37 32.445313 37 33 C 37 33.554688 36.554688 34 36 34 L 23 34 C 22.449219 34 22 33.554688 22 33 C 22 32.445313 22.449219 32 23 32 Z " fill="#ffc045"></path></g></svg><g id="Group" transform="translate(28.000000, 84.000000)"><rect id="Rectangle-19" x="0" y="0" width="104" height="21"></rect><text id="headerText.primary" font-family="Overpass Mono" font-size="18" font-weight="700" letter-spacing=".81" fill="#ffc045" data-text-alignment="C" font-style="normal"><tspan x="22.65625" y="17.5">Raion</tspan></text></g></g></svg>